<svg width="130" height="68" viewBox="0 0 130 68" fill="none" xmlns="http://www.w3.org/2000/svg">
<path d="M33.6234 7.112V6.008H31.4634V2.76H30.2634V14.44H31.4634V7.112H33.6234ZM24.3434 7.208L22.2634 10.184L23.2074 10.808L28.1194 3.8L27.1434 3.096H21.6234V4.216H26.4394L25.1114 6.088H21.7834V7.208H24.3434ZM46.7497 14.44V2.76H45.5497V14.44H46.7497ZM44.0777 14.44V2.76H42.9097V5.832H41.3897V6.952H42.9097V14.44H44.0777ZM37.7417 8.664V4.2H39.3897V8.664H37.7417ZM41.5817 9.784V8.664H40.5897V4.2H41.5017V3.096H35.6297V4.2H36.5577V8.664H35.5497V9.784H41.5817ZM62.4359 7.112V6.008H60.2759V2.76H59.0759V14.44H60.2759V7.112H62.4359ZM56.9159 3.8L55.9559 3.096H50.9159V4.216H55.2359L51.2039 9.976L52.1479 10.616L56.9159 3.8ZM73.8502 8.056V6.952H68.3942V3.08H67.1942V6.968C67.1942 7.26667 67.3009 7.52267 67.5142 7.736C67.7275 7.94933 67.9835 8.056 68.2822 8.056H73.8502ZM77.0022 11.608V10.504H63.8822V11.608H77.0022ZM73.8502 18.12V17.016H68.3942V13.8H67.1942V17.032C67.1942 17.3307 67.3009 17.5867 67.5142 17.8C67.7275 18.0133 67.9835 18.12 68.2822 18.12H73.8502ZM94.7641 6.584V5.48H92.6041V2.76H91.4041V12.312H86.0761V13.336H91.4041V14.888H86.0761V17.352C86.0761 17.6507 86.1827 17.9067 86.3961 18.12C86.6201 18.3333 86.8814 18.44 87.1801 18.44H92.7641V17.416H87.2761V15.848H92.6041V12.312V6.584H94.7641ZM88.4441 9.048V7.944H84.1241V3.096H82.9241V7.96C82.9241 8.25867 83.0307 8.51467 83.2441 8.728C83.4681 8.94133 83.7294 9.048 84.0281 9.048H88.4441ZM107.89 12.68V2.76H106.69V12.68H107.89ZM102.418 6.584H104.05V12.68H105.218V2.76H104.05V5.48H102.386C102.28 4.936 102.029 4.46133 101.634 4.056C101.25 3.64 100.754 3.352 100.146 3.192V2.52H98.9463V3.192C98.2423 3.384 97.677 3.74667 97.2503 4.28C96.8343 4.80267 96.6263 5.40533 96.6263 6.088C96.6263 6.49333 96.701 6.87733 96.8503 7.24C96.9996 7.60267 97.2076 7.92267 97.4743 8.2C97.741 8.46667 98.0503 8.68 98.4023 8.84C98.7543 8.98933 99.133 9.064 99.5383 9.064C99.901 9.064 100.242 9 100.562 8.872C100.893 8.744 101.186 8.568 101.442 8.344C101.698 8.12 101.912 7.85867 102.082 7.56C102.253 7.25067 102.365 6.92533 102.418 6.584ZM101.25 6.088C101.25 6.35467 101.208 6.60533 101.122 6.84C101.037 7.07467 100.914 7.27733 100.754 7.448C100.605 7.61867 100.424 7.752 100.21 7.848C100.008 7.944 99.7836 7.992 99.5383 7.992C99.293 7.992 99.0636 7.944 98.8503 7.848C98.6476 7.752 98.4716 7.61867 98.3223 7.448C98.173 7.27733 98.0503 7.07467 97.9543 6.84C97.869 6.60533 97.8263 6.35467 97.8263 6.088C97.8263 5.82133 97.869 5.576 97.9543 5.352C98.0503 5.11733 98.173 4.91467 98.3223 4.744C98.4716 4.57333 98.6476 4.44 98.8503 4.344C99.0636 4.248 99.293 4.2 99.5383 4.2C99.7836 4.2 100.008 4.248 100.21 4.344C100.424 4.44 100.605 4.57333 100.754 4.744C100.914 4.91467 101.037 5.11733 101.122 5.352C101.208 5.576 101.25 5.82133 101.25 6.088ZM108.05 18.12V17.016H102.562V13.144H101.362V17.032C101.362 17.3307 101.469 17.5867 101.682 17.8C101.896 18.0133 102.152 18.12 102.45 18.12H108.05Z" fill="black"/>
<path d="M41.1613 55.976V32.616H37.9613V39.496H32.8413V42.536H37.9613V55.976H41.1613ZM26.1213 42.056L22.3453 47.464L24.9373 49.16L34.8893 34.952L32.5533 33.256H21.3213V36.296H30.1533L28.2653 39.016H21.6413V42.056H26.1213ZM74.7738 55.976V32.616H71.5738V55.976H74.7738ZM59.4138 43.976V36.296H62.2938V43.976H59.4138ZM67.7338 47.016V43.976H65.4938V36.296H67.5738V33.256H54.1338V36.296H56.2138V43.976H53.9738V47.016H67.7338ZM104.962 39.912C104.962 38.952 104.696 38.0667 104.162 37.256H106.946V34.216H100.706V31.976H97.5063V34.216H91.2663V37.256H94.0503C93.5169 38.0667 93.2503 38.952 93.2503 39.912C93.2503 40.6373 93.3996 41.32 93.6983 41.96C94.0183 42.6 94.4449 43.1653 94.9783 43.656C95.5116 44.1253 96.1303 44.4987 96.8343 44.776C97.5383 45.0533 98.2956 45.192 99.1063 45.192C99.8956 45.192 100.642 45.0533 101.346 44.776C102.072 44.4987 102.701 44.1253 103.234 43.656C103.768 43.1653 104.184 42.6 104.482 41.96C104.802 41.32 104.962 40.6373 104.962 39.912ZM101.762 39.912C101.762 40.5733 101.506 41.128 100.994 41.576C100.482 42.0027 99.8529 42.216 99.1063 42.216C98.3809 42.216 97.7516 42.0027 97.2183 41.576C96.7063 41.128 96.4503 40.5733 96.4503 39.912C96.4503 39.2507 96.7063 38.7067 97.2183 38.28C97.7516 37.832 98.3809 37.608 99.1063 37.608C99.8529 37.608 100.482 37.832 100.994 38.28C101.506 38.7067 101.762 39.2507 101.762 39.912ZM112.226 50.056V47.016H85.9863V50.056H112.226ZM105.826 60.776V52.456H92.3863V60.776C92.3863 61.48 92.6316 62.0773 93.1223 62.568C93.6343 63.08 94.2423 63.336 94.9463 63.336H103.266C103.97 63.336 104.568 63.08 105.058 62.568C105.57 62.0773 105.826 61.48 105.826 60.776ZM102.626 60.296H95.5863V55.496H102.626V60.296Z" fill="black"/>
</svg>
